<svg width="192" height="36" viewBox="0 0 192 36" fill="none" xmlns="http://www.w3.org/2000/svg">
<path fill-rule="evenodd" clip-rule="evenodd" d="M62.5638 13.9188V9.72301C62.5638 9.62528 62.5833 9.52851 62.6211 9.43823C62.6589 9.34795 62.7144 9.2659 62.7842 9.1968C62.854 9.1277 62.9369 9.07288 63.0282 9.03549C63.1194 8.99809 63.2172 8.97885 63.316 8.97885H80.0008C80.2004 8.97885 80.3916 9.05725 80.5327 9.1968C80.6737 9.33636 80.753 9.52564 80.753 9.72301V13.9188H74.7539V31.3038H68.4992V13.9188H62.5638ZM93.6856 31.3038L92.4728 27.6622H84.4951L83.2825 31.3038H76.7088L84.7299 9.46875C84.7827 9.32515 84.8789 9.20111 85.0053 9.11346C85.1317 9.02581 85.2825 8.97881 85.4369 8.97885H91.5942C91.7488 8.97885 91.8996 9.02598 92.0261 9.11383C92.1527 9.20167 92.2488 9.32596 92.3014 9.46978L100.291 31.3038H93.6856ZM90.9091 22.9121L88.4839 15.6923L86.0906 22.9121H90.9091ZM134.37 31.3038L133.157 27.6622H125.179L123.967 31.3038H117.392L125.414 9.46875C125.467 9.32519 125.563 9.20117 125.69 9.11353C125.816 9.02588 125.966 8.97886 126.12 8.97885H132.279C132.433 8.97885 132.583 9.02598 132.71 9.11383C132.837 9.20167 132.933 9.32596 132.986 9.46978L140.975 31.3038H134.37ZM131.593 22.9121L129.168 15.6923L126.774 22.9121H131.593ZM141.515 31.3038V9.72321C141.515 9.52585 141.595 9.33657 141.736 9.197C141.877 9.05745 142.069 8.97905 142.268 8.97905H148.562C148.714 8.97902 148.863 9.02455 148.988 9.10965C149.113 9.19474 149.209 9.3154 149.264 9.45573L154.726 23.4824L160.064 9.46069C160.117 9.31902 160.214 9.19699 160.34 9.11086C160.465 9.02473 160.615 8.97861 160.768 8.97863H167.026C167.226 8.97863 167.417 9.05703 167.558 9.1966C167.699 9.33616 167.779 9.52544 167.779 9.7228V31.3036H161.524V18.9856L157.279 31.3038H152.046L147.77 18.8909V31.304H141.516L141.515 31.3038ZM58.6509 31.3038L57.1957 26.9338H47.6223L46.1673 31.3038H38.2788L47.904 5.10175C47.9674 4.92946 48.0828 4.78063 48.2345 4.67545C48.3863 4.57027 48.5671 4.51385 48.7523 4.51385H56.1412C56.3267 4.51387 56.5078 4.57042 56.6596 4.67584C56.8115 4.78126 56.9268 4.9304 56.9899 5.10298L66.5775 31.3038H58.6509ZM185.395 31.3166L184.183 27.675H176.205L174.992 31.3166H168.419L176.439 9.48156C176.493 9.33801 176.588 9.21398 176.715 9.12634C176.842 9.03869 176.992 8.99167 177.147 8.99166H183.304C183.458 8.99167 183.61 9.0388 183.736 9.12665C183.862 9.21449 183.959 9.33878 184.011 9.4826L192 31.3166H185.395ZM55.3193 21.2338L52.4089 12.5698L49.5371 21.2338H55.3193ZM182.619 22.9251L180.194 15.7051L177.801 22.9251H182.619Z" fill="white"/>
<path fill-rule="evenodd" clip-rule="evenodd" d="M114.1 31.3096L107.04 21.5247V31.3096H100.778V9.39817C100.778 9.28851 100.822 9.18336 100.901 9.10582C100.979 9.0283 101.085 8.98474 101.196 8.98474H106.622C106.733 8.98474 106.839 9.0283 106.917 9.10582C106.996 9.18336 107.04 9.28851 107.04 9.39817V18.6113L113.911 9.15673C113.949 9.10352 114.001 9.06017 114.06 9.03027C114.119 9.00036 114.184 8.98475 114.25 8.98474H120.416C120.494 8.98476 120.57 9.00623 120.636 9.04673C120.702 9.08723 120.756 9.14517 120.79 9.21402C120.825 9.28287 120.839 9.35991 120.832 9.43647C120.825 9.51305 120.797 9.58611 120.749 9.64746L112.982 19.8146L121.671 31.3096H114.1Z" fill="white"/>
<path fill-rule="evenodd" clip-rule="evenodd" d="M26.2402 36L40.3801 0L0 7.40465L26.2402 36Z" fill="url(#paint0_linear_354_2198)"/>
<path fill-rule="evenodd" clip-rule="evenodd" d="M24.0914 24.357L11.9606 11.1824L30.6442 7.75635L24.0914 24.357Z" fill="white"/>
<path fill-rule="evenodd" clip-rule="evenodd" d="M25.61 11.5817L22.8939 18.4749L17.8613 13.0027L25.61 11.5817Z" fill="white"/>
<defs>
<linearGradient id="paint0_linear_354_2198" x1="1.58435" y1="-2.64682e-06" x2="47.4688" y2="16.8206" gradientUnits="userSpaceOnUse">
<stop stop-color="#1B6B88"/>
<stop offset="1" stop-color="#4FEABB"/>
</linearGradient>
</defs>
</svg>
